<?xml version="1.0" encoding="UTF-8" standalone="no"?>
<!-- Created with Inkscape (http://www.inkscape.org/) -->

<svg
   width="195.36945mm"
   height="47.965118mm"
   viewBox="0 0 195.36944 47.96512"
   version="1.1"
   id="svg1"
   xml:space="preserve"
   xmlns:xlink="http://www.w3.org/1999/xlink"
   xmlns="http://www.w3.org/2000/svg"
   xmlns:svg="http://www.w3.org/2000/svg"><defs
     id="defs1"><linearGradient
       id="linearGradient33"><stop
         style="stop-color:#314c5d;stop-opacity:1;"
         offset="0"
         id="stop33" /><stop
         style="stop-color:#132835;stop-opacity:1;"
         offset="1"
         id="stop34" /></linearGradient><clipPath
       clipPathUnits="userSpaceOnUse"
       id="clipPath30"><path
         d="m 147.42563,200.12267 c 2.1042,0.003 2.71988,0.10472 3.78013,0.62787 1.59703,0.78801 4.42891,3.53229 5.08031,4.92321 0.73624,1.57211 0.85027,4.91534 0.22789,6.67608 -1.01691,2.87691 -3.59876,5.53857 -6.2668,6.46059 -1.77988,0.61509 -4.65693,0.61474 -6.43733,-5.3e-4 -2.35011,-0.81214 -3.73875,-2.18006 -5.41001,-5.33094 -0.54422,-1.02603 -0.63115,-1.55639 -0.63097,-3.83646 1.8e-4,-2.3933 0.0714,-2.78176 0.74931,-4.06952 1.00353,-1.90647 2.88494,-3.73515 4.81263,-4.67878 1.41301,-0.69168 1.84942,-0.77421 4.09484,-0.77153 z"
         style="display:none;stroke-width:1"
         id="path30" /><path
         id="lpe_path-effect30"
         style="stroke-width:1"
         class="powerclip"
         d="m 137.53221,200.01229 h 19.31473 v 19.66725 h -19.31473 z m 9.89342,0.11038 v -1e-5 c -2.24542,-0.003 -2.68183,0.0798 -4.09484,0.77153 -1.92769,0.94363 -3.8091,2.77231 -4.81263,4.67878 -0.67791,1.28776 -0.74913,1.67622 -0.74931,4.06952 -1.8e-4,2.28007 0.0868,2.81043 0.63097,3.83646 1.67126,3.15088 3.0599,4.5188 5.41001,5.33094 1.7804,0.61527 4.65745,0.61562 6.43733,5.3e-4 2.66804,-0.92202 5.24989,-3.58368 6.2668,-6.46059 0.62238,-1.76074 0.50835,-5.10397 -0.22789,-6.67608 -0.6514,-1.39092 -3.48328,-4.1352 -5.08031,-4.92321 -1.06025,-0.52315 -1.67593,-0.62487 -3.78013,-0.62787 z" /></clipPath><clipPath
       clipPathUnits="userSpaceOnUse"
       id="clipPath31"><path
         d="m 84.920915,200.07358 c 1.545757,0.0214 3.05443,0.64083 4.362524,1.85621 l 0.727605,0.67593 v -1.25315 -1.25264 l 2.472716,0.009 2.472201,0.009 0.180869,9.33948 c 0.09953,5.13681 0.111321,9.45283 0.02585,9.59115 -0.228847,0.37028 -3.925039,0.31345 -4.304647,-0.0662 -0.174625,-0.17462 -0.317809,-0.84474 -0.317809,-1.48932 v -1.17202 l -1.12448,0.97307 c -1.995656,1.72654 -4.670298,2.53296 -6.717937,2.02572 -3.152429,-0.78093 -5.633241,-4.28547 -5.86476,-8.28477 -0.242376,-4.18692 0.859642,-7.08919 3.504698,-9.22941 1.454753,-1.1771 3.037424,-1.75361 4.583184,-1.73219 z"
         style="display:none;stroke-width:1"
         id="path31" /><path
         id="lpe_path-effect31"
         style="stroke-width:1"
         class="powerclip"
         d="m 76.172367,200.01229 h 18.969446 v 19.25163 H 76.172367 Z m 8.748548,0.0613 1.4e-5,-1.4e-4 c -1.54576,-0.0214 -3.128431,0.55509 -4.583184,1.73219 -2.645056,2.14022 -3.747074,5.04249 -3.504698,9.22941 0.231519,3.9993 2.712331,7.50384 5.86476,8.28477 2.047639,0.50724 4.722281,-0.29918 6.717937,-2.02572 l 1.12448,-0.97307 v 1.17202 c 0,0.64458 0.143184,1.3147 0.317809,1.48932 0.379608,0.37965 4.0758,0.43648 4.304647,0.0662 0.08547,-0.13832 0.07368,-4.45434 -0.02585,-9.59115 l -0.180869,-9.33948 -2.472201,-0.009 -2.472716,-0.009 v 1.25264 1.25315 l -0.727605,-0.67593 c -1.308094,-1.21538 -2.816767,-1.83481 -4.362524,-1.85621 z" /></clipPath><linearGradient
       xlink:href="#linearGradient33"
       id="linearGradient34"
       x1="152.43462"
       y1="-274.99945"
       x2="152.43462"
       y2="-179.3354"
       gradientUnits="userSpaceOnUse"
       gradientTransform="translate(-28.257681,-85.950446)" /></defs><g
     id="layer1"
     transform="translate(-21.595664,-41.722076)"><path
       d="m 147.29333,205.01229 c -1.47519,0 -2.43283,0.46311 -3.52123,1.70274 -3.45179,3.93136 0.92393,9.79511 5.53145,7.41247 1.82886,-0.94574 3.00928,-3.82698 2.36626,-5.77536 -0.68557,-2.07731 -2.33987,-3.33985 -4.37648,-3.33985 z"
       id="path29"
       clip-path="url(#clipPath30)"
       transform="matrix(1.2252045,0,0,1.2252045,24.709037,-186.83087)"
       style="fill:#142936;fill-opacity:1" /><path
       d="m 85.623714,205.01229 c -2.339436,0 -4.4873,2.17055 -4.450891,4.49792 0.02811,1.79681 1.403047,4.08254 2.752804,4.57595 0.967919,0.35383 2.850902,0.15994 3.972884,-0.40876 1.63151,-0.82696 2.241268,-1.97346 2.243274,-4.21783 0.0015,-1.66442 -0.05395,-1.82849 -0.924492,-2.73472 -1.245981,-1.29706 -2.117868,-1.71256 -3.593579,-1.71256 z"
       id="path28"
       clip-path="url(#clipPath31)"
       transform="matrix(1.2252045,0,0,1.2252045,24.709037,-186.83087)"
       style="fill:#142936;fill-opacity:1" /><path
       d="m 169.12746,58.434403 0.15195,11.306016 c 0.0875,6.501167 0.28482,11.471222 0.46409,11.695397 0.17148,0.214411 1.13852,0.433208 2.14889,0.48626 4.13124,0.216824 4.03137,0.543868 3.77226,-12.384257 -0.11615,-5.794519 -0.23538,-10.560577 -0.26466,-10.591207 -0.0293,-0.03063 -1.45275,-0.1581 -3.16317,-0.283647 z"
       id="path27"
       style="fill:#142936;fill-opacity:1;stroke-width:1.2252" /><path
       d="m 169.12746,58.434403 3.10936,0.228562 c 1.71042,0.125547 3.13384,0.253029 3.16317,0.283647 0.0293,0.03063 0.14852,4.796688 0.26466,10.591207 0.25911,12.928125 0.35898,12.601081 -3.77226,12.384257 -1.01037,-0.05305 -1.97741,-0.271849 -2.14889,-0.48626 -0.17927,-0.224175 -0.37655,-5.19423 -0.46409,-11.695397 z"
       id="path26"
       style="fill:#142936;fill-opacity:1;stroke-width:1.2252" /><path
       d="m 205.33558,58.360327 c -2.7511,-0.0037 -3.28579,0.09777 -5.01701,0.945282 -2.36182,1.15614 -4.66693,3.396647 -5.89646,5.732463 -0.83054,1.577769 -0.91784,2.053712 -0.91806,4.985994 -2.2e-4,2.793552 0.10635,3.443351 0.77307,4.700448 2.04764,3.860472 3.749,5.536454 6.62837,6.531491 2.18135,0.75382 5.70633,0.754248 7.88704,6.37e-4 3.2689,-1.129663 6.43219,-4.39074 7.67812,-7.915543 0.76254,-2.157267 0.62283,-6.253407 -0.27922,-8.179564 -0.79809,-1.704161 -4.26773,-5.066465 -6.22441,-6.031939 -1.29903,-0.640965 -2.05336,-0.765593 -4.63144,-0.769269 z m -0.16209,5.990785 c 2.49526,0 4.52212,1.546869 5.36208,4.091999 0.78783,2.387164 -0.65842,5.917272 -2.89915,7.075997 -5.64516,2.919221 -11.00631,-4.265072 -6.77716,-9.081792 1.33351,-1.5188 2.50682,-2.086204 4.31423,-2.086204 z"
       id="path25"
       style="fill:#142936;fill-opacity:1;stroke-width:1.2252" /><path
       d="m 128.75452,58.300182 c -1.89387,-0.02622 -3.83297,0.680099 -5.61533,2.122287 -3.24074,2.622207 -4.59093,6.178081 -4.29398,11.307914 0.28366,4.899961 3.32316,9.193739 7.18553,10.150538 2.50878,0.621473 5.78576,-0.366557 8.23085,-2.481921 l 1.37772,-1.19221 v 1.435964 c 0,0.789742 0.17543,1.610776 0.38938,1.824722 0.4651,0.465087 4.99369,0.534716 5.27407,0.08111 0.10475,-0.16947 0.0903,-5.457477 -0.0316,-11.75112 l -0.22159,-11.442773 -3.02895,-0.01103 -3.02959,-0.01103 v 1.53474 1.535365 l -0.89147,-0.828153 c -1.60268,-1.489089 -3.45111,-2.248005 -5.34498,-2.274237 z m 0.86107,6.05093 c 1.80805,0 2.87629,0.509072 4.40287,2.098236 1.06659,1.110317 1.13453,1.311336 1.13269,3.350591 -0.002,2.749812 -0.74953,4.154509 -2.74846,5.167704 -1.37466,0.696774 -3.6817,0.934329 -4.8676,0.500815 -1.65372,-0.604528 -3.33831,-3.405015 -3.37275,-5.606475 -0.0446,-2.851504 2.58696,-5.510871 5.45325,-5.510871 z"
       id="path23"
       style="fill:#142936;fill-opacity:1;stroke-width:1.2252" /><path
       d="m 145.04019,58.166586 -6.2e-4,3.335386 c -3.8e-4,1.834437 -0.0958,6.913241 -0.21211,11.285763 -0.19314,7.264997 -0.16272,7.99751 0.34823,8.508788 0.4124,0.412391 1.10063,0.559698 2.61994,0.559698 3.13009,0 3.07961,0.118232 3.07961,-7.214654 0,-5.521629 0.0705,-6.338914 0.64391,-7.513493 1.18553,-2.428036 3.68538,-3.4045 5.85023,-2.285006 1.80096,0.931315 2.03046,1.895845 2.23499,9.395187 0.10206,3.744139 0.30402,6.989889 0.44827,7.212754 0.3455,0.533809 4.49042,0.547483 5.02144,0.01642 0.27971,-0.279702 0.38875,-2.456682 0.38875,-7.746491 0,-6.397883 -0.0829,-7.625415 -0.63694,-9.419261 -1.82925,-5.922394 -9.06362,-8.027834 -13.41058,-3.902681 l -0.91933,0.872468 0.10892,-1.458753 0.10831,-1.458765 -2.83647,-0.09373 z"
       id="path21"
       style="fill:#142936;fill-opacity:1;stroke-width:1.2252" /><path
       d="m 145.04019,58.166586 2.83649,0.09373 2.83647,0.09373 -0.10831,1.458765 -0.10892,1.458753 0.91933,-0.872468 c 4.34695,-4.125153 11.58133,-2.019713 13.41058,3.902681 0.55406,1.793846 0.63694,3.021378 0.63694,9.419261 0,5.289809 -0.10904,7.466789 -0.38875,7.746491 -0.53102,0.531016 -4.67594,0.517342 -5.02144,-0.01642 -0.14425,-0.222865 -0.34615,-3.468615 -0.44827,-7.212754 -0.20454,-7.499342 -0.43403,-8.463872 -2.23499,-9.395187 -2.16485,-1.119494 -4.6647,-0.14303 -5.85023,2.285006 -0.57351,1.174579 -0.64391,1.991864 -0.64391,7.513493 0,7.332837 0.0505,7.214654 -3.07961,7.214654 -1.51932,0 -2.20754,-0.147307 -2.61994,-0.559698 0,0 0,0 0,0 -0.51095,-0.511278 -0.54137,-1.243791 -0.34823,-8.508788 0.11627,-4.372522 0.21173,-9.451325 0.21211,-11.285763 z"
       id="path20"
       style="fill:#142936;fill-opacity:1;stroke-width:1.2252" /><path
       d="m 182.55893,51.08869 c -1.20171,0.0012 -1.24716,0.162792 -1.40811,0.804089 -0.11823,0.471753 -0.11713,2.15511 0.002,3.740598 l 0.2178,2.882698 h -1.47079 -1.47015 v 2.789632 2.789619 l 1.29667,-0.124101 1.29667,-0.123464 0.007,5.843907 c 0.011,8.112238 0.2865,9.01182 3.41897,11.145195 h 6.4e-4 c 1.50029,1.021796 1.72565,1.078596 3.70451,0.931988 2.27316,-0.168428 3.74745,-0.69496 4.03375,-1.441036 0.21349,-0.556365 -0.12603,-3.753071 -0.45523,-4.285729 -0.16086,-0.260331 -0.61639,-0.285227 -1.51384,-0.08356 -2.87358,0.645646 -3.41236,-0.541062 -3.34363,-7.364704 l 0.0456,-4.501009 2.5541,0.174751 c 2.96607,0.203261 2.80755,0.376174 2.96119,-3.239159 l 0.10696,-2.512306 h -2.67059 -2.66996 l -0.0912,-3.646895 -0.0918,-3.646895 -2.82761,-0.09373 c -0.70459,-0.02328 -1.23357,-0.04031 -1.63414,-0.03994 z"
       id="path18"
       style="fill:#142936;fill-opacity:1;stroke-width:1.2252" /><path
       d="m 85.541318,48.981595 c -0.787084,0.01372 -1.285692,0.04398 -1.35999,0.0925 -0.187707,0.12252 -0.389649,6.403629 -0.507146,15.794356 -0.170052,13.590618 -0.132026,15.680645 0.294412,16.289474 0.420201,0.599921 0.803386,0.698354 2.716811,0.698354 3.2136,0 3.246119,-0.05477 3.246119,-5.452613 v -4.434591 l 4.619403,-0.0098 c 4.033034,-0.0086 4.854504,-0.10353 6.468183,-0.747105 5.05789,-2.017275 7.9832,-7.260611 7.07029,-12.672976 -0.92118,-5.461374 -5.20668,-8.968852 -11.350333,-9.290089 -3.88016,-0.202918 -8.8365,-0.309082 -11.197749,-0.267817 z m 4.714375,6.204791 3.808981,0.226663 c 5.92777,0.352405 7.861096,1.613876 7.861096,5.130985 0,2.178475 -0.90236,3.687632 -2.759237,4.613066 -1.025916,0.511302 -2.121496,0.669011 -5.311429,0.764209 l -4.018551,0.120315 0.20957,-1.047844 c 0.115242,-0.576213 0.20957,-3.018401 0.20957,-5.4273 z"
       id="path17"
       style="fill:#142936;fill-opacity:1;stroke-width:1.2252" /><path
       d="m 172.33622,48.46685 c -1.30225,0 -1.71581,0.157255 -2.46229,0.936411 -1.7356,1.811576 -1.3857,4.657873 0.73444,5.973693 0.46842,0.290705 1.18741,0.532009 1.59743,0.536909 1.91742,0.02218 3.99552,-2.078522 4.05274,-4.097059 0.0267,-0.943456 -0.18972,-1.363187 -1.16245,-2.254621 -1.01261,-0.927995 -1.43397,-1.095333 -2.75987,-1.095333 z"
       id="path16"
       style="fill:#142936;fill-opacity:1;stroke-width:1.2252" /><path
       d="m 111.81988,48.228156 c -0.51533,0.01887 -0.87701,0.07388 -0.93896,0.174113 -0.33071,0.535096 -0.23689,30.213225 0.1,31.637476 0.16435,0.694679 0.49172,1.393719 0.72749,1.553731 0.56325,0.382288 4.06774,0.157206 4.51492,-0.289982 0.35157,-0.351548 0.44539,-17.735705 0.0988,-18.296542 -0.0904,-0.146363 0.004,-3.34656 0.20831,-7.111454 0.20668,-3.798612 0.24839,-6.968768 0.0943,-7.122837 -0.33426,-0.334285 -3.25894,-0.601049 -4.80492,-0.544505 z"
       id="path15"
       style="fill:#142936;fill-opacity:1;stroke-width:1.2252" /></g><g
     id="layer2"
     transform="translate(-21.595664,-41.722076)"><g
       id="g36"
       transform="matrix(0.50139138,0,0,0.50139138,-16.683021,222.69923)"><circle
         style="fill:url(#linearGradient34);stroke-width:0.264583;-inkscape-stroke:none"
         id="path33"
         cx="124.17693"
         cy="-313.11786"
         r="47.832012" /><circle
         style="fill:#ffffff;fill-opacity:1;stroke-width:0.200283;-inkscape-stroke:none"
         id="path33-2"
         cx="124.5292"
         cy="-312.61356"
         r="36.207691" /><circle
         style="fill:#97bace;fill-opacity:1;stroke-width:0.166319;-inkscape-stroke:none"
         id="path33-2-7"
         cx="124.39664"
         cy="-312.76505"
         r="30.067636" /><path
         style="fill:none;fill-opacity:1;stroke:#77a7c2;stroke-width:7.765;stroke-linecap:round;stroke-linejoin:round;stroke-dasharray:none;stroke-opacity:1"
         d="m 112.44202,-307.45608 10.30228,9.56641 14.12884,-13.09861"
         id="path36" /><path
         style="fill:none;fill-opacity:1;stroke:#ffffff;stroke-width:7.765;stroke-linecap:round;stroke-linejoin:round;stroke-dasharray:none;stroke-opacity:1"
         d="m 112.02576,-315.83557 10.30228,9.56641 14.12884,-13.09861"
         id="path36-9" /></g></g></svg>
